<svg id="Layer_1" data-name="Layer 1" xmlns="http://www.w3.org/2000/svg" viewBox="0 0 512 512"><defs><style>.cls-1{fill:#0a4343;}</style></defs><path d="M4,393.13v0c0-.08-.06-.18-.08-.26Z"/><polygon class="cls-1" points="220.38 190.54 243.03 278.33 197.76 278.33 220.38 190.54"/><path class="cls-1" d="M256,5.88C117.86,5.88,5.88,117.87,5.88,256S117.86,506.12,256,506.12,506.12,394.13,506.12,256,394.14,5.88,256,5.88Zm11.87,368.64-16.55-57.06H190l-16.56,57.06h-42l59.07-201.7v-22.1h56.31l67.36,223.8Zm111.57.05H334.14V204.25h45.29ZM357.05,183.91a23.24,23.24,0,1,1,23.44-23.25A23.28,23.28,0,0,1,357.05,183.91Z"/></svg>