<svg id="Layer_1" data-name="Layer 1" xmlns="http://www.w3.org/2000/svg" viewBox="0 0 512 512"><defs><style>.cls-1{fill:#0a4343;}</style></defs><path d="M4,393.13v0c0-.08-.06-.18-.08-.26Z"/><path class="cls-1" d="M203,440.89c-12.62,7.31-15,8.17-26.88,12.37-2.86,1-7.2,2.72,1.64,7.8l59.4,35.6a37.09,37.09,0,0,0,18.68,5.08l0,0a37,37,0,0,0,18.66-5.08l177.81-104a38.28,38.28,0,0,0,18.68-32.88V152a38,38,0,0,0-18.68-32.87L274.57,15a38.59,38.59,0,0,0-37.36,0L59.6,119A38.19,38.19,0,0,0,40.94,151.9V359.74A38,38,0,0,0,59.6,392.61l46.59,27.22c22.53,11.33,30.6,11.33,40.9,11.33,33.41,0,52.66-20.48,52.66-56.18V169.68a5.19,5.19,0,0,0-5.2-5.16H172a5.13,5.13,0,0,0-5.21,5.16v205.2c0,15.89-16.18,31.6-42.66,18.25l-48.7-28.49a5.45,5.45,0,0,1-2.77-4.8V152a5.75,5.75,0,0,1,2.79-5L253.08,43a5.49,5.49,0,0,1,5.49,0L436.28,146.92a5.84,5.84,0,0,1,2.79,5V359.84a5.81,5.81,0,0,1-2.68,4.88l-177.82,104a5.49,5.49,0,0,1-5.49,0l-45.63-27.4A4.28,4.28,0,0,0,203,440.89Z"/><path class="cls-1" d="M310.76,327.05c-47.07,0-57.39-12-60.83-35.69a5.11,5.11,0,0,0-5.1-4.39h-23a5.1,5.1,0,0,0-5.1,5.16c0,30.34,16.26,66.53,94.13,66.53,56.2-.11,88.58-22.61,88.58-61.84l-.06,0c0-38.91-26-49.25-80.57-56.56C263.55,232.86,258,229.05,258,216c0-10.82,4.73-25.26,45.63-25.26,36.5,0,50,8,55.54,33a5.15,5.15,0,0,0,5,4.09h23.1a4.93,4.93,0,0,0,3.75-1.66,5.52,5.52,0,0,0,1.35-4c-3.56-43-31.76-63-88.76-63-50.73,0-81,21.67-81,58,0,39.41,30.12,50.35,78.75,55.2,58.24,5.77,62.75,14.44,62.75,26C364.19,318.49,348.22,327.05,310.76,327.05Z"/></svg>