<svg id="Layer_1" data-name="Layer 1" xmlns="http://www.w3.org/2000/svg" viewBox="0 0 512 512"><defs><style>.cls-1{fill:#0a4343;}</style></defs><path d="M4,393.13v0c0-.08-.06-.18-.08-.26Z"/><path class="cls-1" d="M256,5.88C117.86,5.88,5.88,117.87,5.88,256S117.86,506.12,256,506.12,506.12,394.13,506.12,256,394.14,5.88,256,5.88ZM256,267c-15,15.27-32.48,24.29-62.3,25.55-8.24.34-15.87.43-15.87.43v66.81H134.31V151.91s32.58-.86,59.42-.86c27.09,0,46.43,6.37,59.42,17.59,12.4,10.6,20.76,28.68,20.76,49.21S267.57,255.23,256,267Zm78.13,93.84c-15.19-.46-32-6.48-43.62-12.8V313.49c8.78,5.37,29.5,13.44,43.62,13.44,14.43,0,20.39-5.07,20.39-13s-4.7-16.26-22.58-22.3c-31.71-10.78-43.94-23.71-43.61-41.77,0-29.2,24.47-51.09,62.42-51.09,17.89,0,32.18,5.84,41.57,10.6v35c-6.9-3.81-26.83-12.31-40-12.31-11.6,0-18.19,4.75-18.19,12.67,0,7.31,6,11.11,24.78,17.78h0c29.17,10.15,41.4,25.06,41.72,47.91C400.65,339.31,378.4,362.27,334.16,360.88ZM196,184.21c-8.94-.32-18.18,0-18.18,0V256c4.74.45,7.7.22,14.73.15,23.36-.29,37.79-14.48,37.79-36C230.36,200.86,218.47,185,196,184.21Z"/></svg>