<svg id="Layer_1" data-name="Layer 1" xmlns="http://www.w3.org/2000/svg" viewBox="0 0 512 512"><defs><style>.cls-1{fill:#0a4343;}</style></defs><path d="M4,393.13v0c0-.08-.06-.18-.08-.26Z"/><path class="cls-1" d="M256.43,300.39a44.32,44.32,0,1,1,44.32-44.32A44.31,44.31,0,0,1,256.43,300.39Z"/><path class="cls-1" d="M154.93,256.06c-.09-3.7-.15-8.06-.15-12.44A501.82,501.82,0,0,1,177.1,95.18l-.93,3.54a200.1,200.1,0,0,1,35-65.11l-.29.39A62.78,62.78,0,0,1,256.23,8.07l.24,0c29.31,0,58,32.13,76.72,86.08,15.2,46.19,24,99.35,24,154.55,0,2.56,0,5.11-.05,7.67V256c0,2.14.05,4.64.05,7.16a505.43,505.43,0,0,1-24.58,156.22l1-3.58a203.3,203.3,0,0,1-33.36,63.12l.33-.44a60.2,60.2,0,0,1-43.89,25.49l-.24,0C226,504,195.16,468,176,410.11c-13.4-43.45-21.13-93.41-21.13-145.17,0-3.13,0-6.24.1-9.34v.46Zm180.94,0c0-1.95,0-4.27,0-6.59A495.37,495.37,0,0,0,312.2,97.6l1,3.52c-17.3-49.62-41-71.87-56.77-71.87-16.42,0-42.29,23.93-60.2,76.37C183.39,147,176,194.51,176,243.77q0,6.48.17,12.91l0-.62c-.06,2.68-.09,5.84-.09,9a486.45,486.45,0,0,0,21,141.86l-.9-3.44c18.1,54.43,44,79.44,60.32,79.44a41.37,41.37,0,0,0,27.86-17.76l.09-.15a180.31,180.31,0,0,0,28.94-54.61l.37-1.29C327.83,365.58,336,315.47,336,263.48c0-2.61,0-5.2,0-7.79v.38Z"/><path class="cls-1" d="M35.55,155.51c0-.3,0-.65,0-1a46.23,46.23,0,0,1,6-22.89l-.13.24c14.71-25.34,56.85-34.17,112.92-23.54,57.52,12.82,108.38,33.6,154.46,61.49l-2.28-1.27a512.57,512.57,0,0,1,126.37,99.76l.33.37a201.22,201.22,0,0,1,37.29,58.6l.5,1.34a59.25,59.25,0,0,1,5.7,25.56,59.93,59.93,0,0,1-5.78,25.75l.15-.37c-15.19,26.39-61.79,35.14-121.47,22.76-54.56-13.24-102.61-33.43-146.36-60l2.26,1.29A507.35,507.35,0,0,1,80.12,246.81l-.23-.26A199.92,199.92,0,0,1,41.6,185.48l-.48-1.36a83.76,83.76,0,0,1-5.61-28.48v-.11Zm265.66,22.16-5.3,9.17a484.13,484.13,0,0,0-142.32-57.11l-3.31-.63c-51.66-9.8-82.71-.35-90.58,13.24a25.65,25.65,0,0,0-3,12.08c0,.37,0,.76,0,1.12v0c0,17.56,11.13,45.2,39,77.16a485.42,485.42,0,0,0,117.76,91.42l2.48,1.25A479.54,479.54,0,0,0,350.38,381l3.34.7c56.24,11.56,90.66,1.58,98.9-12.62a40.4,40.4,0,0,0,2.72-14.74,41.32,41.32,0,0,0-4.41-18.61l.11.24a181.12,181.12,0,0,0-34-53.46l.11.13a489.32,489.32,0,0,0-118.93-94.44l-2.43-1.27Z"/><path class="cls-1" d="M35.29,356.62c0-24,14.48-54.43,41.86-86.24A510.83,510.83,0,0,1,202.81,169.91l2.52-1.33c43.2-26.29,93.32-46.91,146.65-59.12l3.4-.66a197.64,197.64,0,0,1,43.34-4.69,204.69,204.69,0,0,1,28.52,2l-1.07-.13a60.14,60.14,0,0,1,44.12,25.23l.13.18c15.26,26.3-.44,71.07-41,116.62a512.44,512.44,0,0,1-120.26,94.11l-2.54,1.33a492.27,492.27,0,0,1-143.39,59.61l-3.42.7a196.78,196.78,0,0,1-43.4,4.73,202.78,202.78,0,0,1-31.18-2.39l1.14.14A62.87,62.87,0,0,1,41.23,380l-.13-.21a44.88,44.88,0,0,1-5.81-22.19c0-.33,0-.66,0-1v.05ZM215.92,186.93A497.77,497.77,0,0,0,93.53,283.86l-.33.37c-34.26,39.83-41.67,71.42-33.73,85.1,8.21,14.21,41.86,24.62,96.23,13.86C208.84,370.28,255.62,350.33,298,324L296,325.2a492.61,492.61,0,0,0,117.39-91l.2-.22c38.14-42.92,46.71-77.69,38.5-91.91a41.11,41.11,0,0,0-29.29-15.17h-.13a174.81,174.81,0,0,0-23.87-1.58,181.11,181.11,0,0,0-40.47,4.56l1.22-.24C305.25,142,257.31,161.78,213.83,188.17L216,187Z"/></svg>