<svg id="Layer_1" data-name="Layer 1" xmlns="http://www.w3.org/2000/svg" viewBox="0 0 512 512"><defs><style>.cls-1{fill:#0a4343;fill-rule:evenodd;}</style></defs><path d="M4,393.13v0c0-.08-.06-.18-.08-.26Z"/><path class="cls-1" d="M355.52,84.14l17,16.91L411.32,104a4.67,4.67,0,0,1,4.22,3.94c.33,2.45,52.7,358.23,52.7,358.23L339.75,494.06ZM335.81,70.66a15.29,15.29,0,0,0-2.42.5L319,75.63c-8.61-24.89-23.8-47.76-50.51-47.76-.74,0-1.51,0-2.26.07-7.61-10.1-17-14.49-25.15-14.49-62.25,0-92,78.22-101.32,118-24.2,7.53-41.38,12.87-43.56,13.57-13.53,4.27-14,4.69-15.72,17.47-1.33,9.69-36.67,284.27-36.67,284.27l275.3,51.83.3-.06ZM264.14,90v2.72l-48.13,15c9.27-35.92,26.63-53.28,41.82-59.83C261.63,57.47,264.14,71.3,264.14,90ZM239.3,30.22a14.09,14.09,0,0,1,8,2.72c-20,9.43-41.34,33.2-50.37,80.65l-38,11.84c10.57-36.2,35.68-95.2,80.39-95.2ZM250,241.78a84.27,84.27,0,0,0-35.86-8.64c-29,0-30.42,18.26-30.42,22.86,0,25.12,65.13,34.75,65.13,93.57,0,46.26-29.21,76.07-68.6,76.07-47.26,0-71.42-29.56-71.42-29.56l12.65-42s24.86,21.44,45.82,21.44c13.68,0,19.26-10.84,19.26-18.75,0-32.76-53.44-34.23-53.44-88.07,0-45.28,32.36-89.14,97.67-89.14,25.17,0,37.6,7.26,37.6,7.26ZM280.45,87.61V82.55c0-15.46-2.14-27.91-5.56-37.78,13.76,1.72,22.94,17.48,28.83,35.59Z"/></svg>