<svg id="Layer_1" data-name="Layer 1" xmlns="http://www.w3.org/2000/svg" viewBox="0 0 512 512"><defs><style>.cls-1{fill:#0a4343;fill-rule:evenodd;}</style></defs><path d="M4,393.13v0c0-.08-.06-.18-.08-.26Z"/><path class="cls-1" d="M470.11,138.92A187.06,187.06,0,0,1,471.74,164c0,42.9-4,45.31-93.08,302.9a244,244,0,0,0,91.45-328ZM260.29,277.34,187.07,490.06a244.1,244.1,0,0,0,150-3.88,22.32,22.32,0,0,1-1.73-3.37Zm160.43-33.67c0-30.16-10.83-51-20.13-67.3-12.34-20.1-24-37.11-24-57.21,0-22.43,17-43.31,41-43.31,1.07,0,2.09.14,3.14.19A243.95,243.95,0,0,0,52.14,122c15.54.49,36.4.68,80.74-2.78,13.15-.78,14.69,18.54,1.56,20.08,0,0-13.23,1.56-27.94,2.34l88.87,264.3,53.38-160.16-38-104.16q-12.83-.78-25.57-2.32c-13.15-.78-11.62-20.89,1.53-20.1,50.44,3.88,76.25,4.17,129.3,0,13.15-.79,14.71,18.54,1.56,20.1,0,0-13.25,1.56-27.94,2.32l88.18,262.3C412.62,287.54,420.72,268.07,420.72,243.67ZM12,256a244,244,0,0,0,137.52,219.6L33.13,156.68A243,243,0,0,0,12,256Z"/></svg>